<?xml version="1.0" standalone="no"?>
<!DOCTYPE svg PUBLIC "-//W3C//DTD SVG 20010904//EN"
 "http://www.w3.org/TR/2001/REC-SVG-20010904/DTD/svg10.dtd">
<svg version="1.0" xmlns="http://www.w3.org/2000/svg"
 width="700.000000pt" height="700.000000pt" viewBox="0 0 700.000000 700.000000"
 preserveAspectRatio="xMidYMid meet">
<metadata>
Created by potrace 1.14, written by Peter Selinger 2001-2017
</metadata>
<g transform="translate(0.000000,700.000000) scale(0.100000,-0.100000)"
fill="#000000" stroke="none">
<path d="M0 3500 l0 -3500 3500 0 3500 0 0 3500 0 3500 -3500 0 -3500 0 0
-3500z m2114 1635 c337 -45 610 -169 892 -406 46 -39 84 -72 84 -73 0 -8 -383
-512 -390 -514 -5 -2 -49 31 -97 74 -112 98 -181 144 -296 200 -144 69 -263
96 -432 98 -152 1 -201 -8 -296 -55 -65 -32 -134 -106 -149 -158 -22 -81 -7
-179 36 -230 62 -74 234 -147 484 -206 235 -56 401 -102 502 -141 369 -141
580 -357 643 -658 21 -103 21 -299 0 -401 -84 -403 -422 -691 -896 -761 -164
-24 -438 -15 -604 20 -363 77 -662 237 -942 508 l-72 69 211 249 211 249 127
-122 c184 -177 338 -266 557 -323 120 -31 332 -43 438 -25 132 23 251 97 298
185 28 53 31 193 4 242 -50 94 -209 166 -544 244 -526 124 -776 241 -944 445
-58 70 -130 212 -154 305 -26 100 -31 317 -10 421 83 414 432 706 915 768 105
14 307 12 424 -4z m3199 -20 c380 -50 704 -213 986 -499 l105 -105 -44 -48
c-167 -183 -404 -433 -410 -433 -5 0 -45 39 -89 88 -217 234 -460 353 -748
369 -385 21 -759 -212 -907 -564 -63 -151 -71 -200 -71 -433 1 -191 3 -224 23
-295 92 -328 350 -586 680 -677 63 -18 105 -22 232 -22 136 0 167 4 252 26
211 57 363 151 534 332 l114 121 225 -225 224 -225 -87 -96 c-224 -246 -457
-402 -734 -493 -485 -159 -1024 -92 -1428 177 -419 278 -672 711 -709 1213
-26 348 27 643 165 919 171 343 481 628 839 770 257 102 561 138 848 100z"/>
</g>
</svg>
