<svg xmlns="http://www.w3.org/2000/svg" viewBox="0 0 195.09264 26.26118">
    <defs>
        <style>
            .sce-logo-text { fill: #d9d9d9; }
            .sce-logo-outline { fill: none; stroke: #d9d9d9; stroke-miterlimit: 10; stroke-width: 1.26118px; }
            .sce-logo-box { fill: #d9d9d9; }
            .sce-logo-box-text { fill: #152426; }
        </style>
    </defs>
    <rect class="sce-logo-outline" x="0.63059" y="0.63059" width="193.83146" height="25"/>
    <rect class="sce-logo-box" x="135.62787" y="4.16354" width="55.16394" height="17.93411"/>
    <g class="sce-logo-text">
        <path d="M10.75239,17.07353l.74561-.88233a5.07068,5.07068,0,0,0,3.65088,1.50586c1.43017,0,2.37353-.76025,2.37353-1.81006v-.03027c0-.98926-.53271-1.55176-2.769-2.02344-2.44922-.53271-3.57471-1.32373-3.57471-3.07324v-.03027c0-1.67334,1.47559-2.90576,3.499-2.90576a5.55522,5.55522,0,0,1,3.74218,1.30859l-.6997.92773a4.67784,4.67784,0,0,0-3.07325-1.15625c-1.38427,0-2.2666.76075-2.2666,1.71924v.03028c0,1.0039.54785,1.56689,2.89063,2.06884,2.373.51758,3.46826,1.38477,3.46826,3.01221v.03076c0,1.8252-1.521,3.01221-3.63574,3.01221A6.23121,6.23121,0,0,1,10.75239,17.07353Z"/>
        <path d="M21.98286,7.97636h1.20166V18.62529H21.98286Z"/>
        <path d="M26.98823,7.97636h1.20215v9.53857H34.184v1.11036h-7.1958Z"/>
        <path d="M34.04927,7.97636h1.33886l3.78809,9.17334,3.80322-9.17334h1.293l-4.5791,10.7251H38.62837Z"/>
        <path d="M46.75532,7.97636h7.69824V9.07157H47.95747v3.63575h5.811v1.09521h-5.811v3.72754h6.57178v1.09522H46.75532Z"/>
        <path d="M57.6352,7.97636h4.57959A4.19866,4.19866,0,0,1,65.24214,9.0413a2.94128,2.94128,0,0,1,.82129,2.09912v.03028a3.11619,3.11619,0,0,1-2.89063,3.10351l3.271,4.35108H64.96821L61.87983,14.4871H58.83735v4.13819H57.6352ZM62.10786,13.407c1.59766,0,2.73877-.82128,2.73877-2.19043v-.03027c0-1.30859-1.00439-2.09961-2.72314-2.09961H58.83735V13.407Z"/>
        <path d="M74.10054,13.33134v-.03076a5.3646,5.3646,0,0,1,5.38525-5.50684,5.54311,5.54311,0,0,1,4.15332,1.68848l-.82178.88232a4.62718,4.62718,0,0,0-3.34668-1.46045,4.17561,4.17561,0,0,0-4.123,4.36622v.03027a4.202,4.202,0,0,0,4.123,4.39648,4.62184,4.62184,0,0,0,3.438-1.53613l.791.77588a5.54577,5.54577,0,0,1-4.25977,1.87109A5.31146,5.31146,0,0,1,74.10054,13.33134Z"/>
        <path d="M86.48628,7.97636h4.5791A4.19906,4.19906,0,0,1,94.09321,9.0413a2.94128,2.94128,0,0,1,.82129,2.09912v.03028a3.11619,3.11619,0,0,1-2.89062,3.10351l3.271,4.35108H93.81929L90.73091,14.4871H87.68843v4.13819H86.48628ZM90.95894,13.407c1.59765,0,2.73876-.82128,2.73876-2.19043v-.03027c0-1.30859-1.00439-2.09961-2.72314-2.09961H87.68843V13.407Z"/>
        <path d="M98.1728,7.97636H105.871V9.07157H99.375v3.63575h5.81152v1.09521H99.375v3.72754h6.57178v1.09522H98.1728Z"/>
        <path d="M109.05317,7.97636h7.69825V9.07157h-6.4961v3.63575h5.811v1.09521h-5.811v3.72754h6.57178v1.09522h-7.77393Z"/>
        <path d="M119.93306,7.97636h1.20214v6.35889l6.11573-6.35889h1.55176l-4.564,4.65479,4.76172,5.99414h-1.50635l-4.09228-5.15723-2.26661,2.29736v2.85987h-1.20214Z"/>
    </g>
    <g class="sct-logo-boxText">
        <path d="M147.604,15.18876q0,.04542-.02246.55371-.02269.509-.02246.97266v.37305q-1.10816-.06811-4.3872-.06787h-1.41358q-.21459,0-.21484-.09082c0-.04053.02246-.06446.06787-.07081q.03369,0,.42969-.03076.2937-.022.356-.12451a1.32511,1.32511,0,0,0,.0625-.5332V9.79667q0-.32886-.09619-.3916a1.64174,1.64174,0,0,0-.61621-.0625c-.1206,0-.18115-.03174-.18115-.0957s.083-.09619.249-.09619h4.79444a3.93111,3.93111,0,0,0,.62158-.04541q.02269.48633.10205,1.3457l.04492.48633a.79189.79189,0,0,1,.01123.147c0,.0752-.03369.11279-.10156.11279-.083,0-.14307-.09472-.18115-.28418a1.84622,1.84622,0,0,0-.70069-1.29736,5.08328,5.08328,0,0,0-1.8999-.20508h-.92725v3.32471h.27149a3.53955,3.53955,0,0,0,1.54346-.19238q.27686-.1919.3789-1.11963.02271-.23732.12451-.23731.12378,0,.124.20362,0,.20361-.02246.59912-.02271.39624-.02247.59961,0,1.21.03614,1.66211.00879.11279.00879.19189c0,.09814-.041.147-.12354.147-.05273,0-.08838-.03174-.10693-.0957q-.02856-.09594-.09571-.62793a.899.899,0,0,0-.55175-.8252,4.65617,4.65617,0,0,0-1.05762-.06787h-.50684v3.78809a21.836,21.836,0,0,0,2.91748-.10059q.74634-.16771.84815-1.42968.02271-.27906.147-.2793Q147.604,14.951,147.604,15.18876Z"/>
        <path d="M156.52534,13.14677a4.23223,4.23223,0,0,1-.82568,2.63721,3.436,3.436,0,0,1-2.20459,1.33593V17.471a1.73342,1.73342,0,0,0,.33349,1.228,1.70948,1.70948,0,0,0,1.21534.334,2.84522,2.84522,0,0,0,.2998-.02246,2.84519,2.84519,0,0,1,.29981-.02246c.12011,0,.18066.041.18066.124q0,.09082-.33936.15821a6.91191,6.91191,0,0,1-1.26611.11328,1.92157,1.92157,0,0,1-1.606-.64453,2.11958,2.11958,0,0,1-.28271-1.26661v-.40673a3.882,3.882,0,0,1-1.70068-.83692,4.05049,4.05049,0,0,1-1.29541-3.15478,4.63237,4.63237,0,0,1,.45214-2.0293,3.65458,3.65458,0,0,1,1.227-1.47559,3.55932,3.55932,0,0,1,4.05323.21534,3.99453,3.99453,0,0,1,1.07422,1.47753A4.69509,4.69509,0,0,1,156.52534,13.14677Zm-1.2666.07422a5.61594,5.61594,0,0,0-.7915-3.21094,1.7136,1.7136,0,0,0-1.50391-.78027,1.93977,1.93977,0,0,0-1.75244,1.00049,5.5676,5.5676,0,0,0-.61084,2.87793A5.38707,5.38707,0,0,0,151.228,15.969a2.00823,2.00823,0,0,0,1.80322.99462,1.88987,1.88987,0,0,0,1.832-1.31152A6.32766,6.32766,0,0,0,155.25874,13.221Z"/>
        <path d="M165.458,9.263c0,.061-.06787.09131-.20361.09131h-.38428q-.28272,0-.33936.14648a1.04805,1.04805,0,0,0-.02246.25977v4.23389a3.77061,3.77061,0,0,1-.61621,2.39941,2.42228,2.42228,0,0,1-1.98437.751,2.65137,2.65137,0,0,1-2.30665-.92725,3.63061,3.63061,0,0,1-.44091-2.04639V9.63652a.30047.30047,0,0,0-.27491-.24854q-.06883-.011-.42382-.01123-.19483-.02271-.19483-.11328c0-.06787.05274-.10156.15869-.10156h2.54395c.12793,0,.19238.0415.19238.124a.079.079,0,0,1-.06787.09033q-.06812.01171-.45264.02246a.66736.66736,0,0,0-.21484.02295.18006.18006,0,0,0-.124.15821q-.01173.04467-.01172.64306v4.042a3.18214,3.18214,0,0,0,.4751,2.03272,1.77888,1.77888,0,0,0,1.41357.542q1.71827,0,1.94482-1.95068.0337-.293.0337-2.48V9.71415a.28166.28166,0,0,0-.23438-.3042,2.51632,2.51632,0,0,0-.458-.02246q-.22338,0-.22363-.124c0-.06787.05273-.10156.15869-.10156h1.79785Q165.4582,9.16191,165.458,9.263Z"/>
        <path d="M169.83345,16.91288c0,.06446-.04493.09619-.13575.09619h-.11279a14.584,14.584,0,0,0-1.53808-.03369q-.28272,0-.565.02246-.14721.011-.45263.01123c-.09815,0-.147-.03369-.147-.10156,0-.06054.09815-.09424.29395-.102q.45264-.011.53174-.10742a1.44852,1.44852,0,0,0,.0791-.65234V10.07988a1.66747,1.66747,0,0,0-.05713-.62354q-.06885-.11352-.62988-.13623c-.145-.00635-.21778-.0332-.21778-.07959,0-.06006.0459-.08984.13672-.08984h1.53858q.17065,0,.66064.01123l.43311-.01123c.12158,0,.18213.03222.18213.09619q0,.08643-.50342.10742c-.19092.00732-.30762.0415-.34961.10156a1.05517,1.05517,0,0,0-.0625.4751V15.969a2.00223,2.00223,0,0,0,.05615.70068,1.33177,1.33177,0,0,0,.73535.147C169.79194,16.81669,169.83345,16.84892,169.83345,16.91288Z"/>
        <path d="M177.602,11.1746c0,.09815-.04541.147-.13574.147s-.15479-.09814-.19238-.29394q-.02271-.20361-.04493-.40723a1.97153,1.97153,0,0,0-.26025-.68945,1.11209,1.11209,0,0,0-.78027-.4751,2.44827,2.44827,0,0,0-.56543-.05664q-.53173.01539-.64453.02246v6.8291q0,.408.21484.50928a2.0614,2.0614,0,0,0,.6333.06787c.09033.00733.13574.03955.13574.09619,0,.06446-.06054.0962-.18115.0962a1.00128,1.00128,0,0,1-.1582-.01124q-.67822-.0227-.96094-.02246-.37353,0-.70117.01661-.32812.01757-.83643.01709c-.17383,0-.26025-.03028-.26025-.09034q0-.1018.48633-.11328.3501,0,.45215-.14746a1.1225,1.1225,0,0,0,.05664-.46435V9.42167a5.611,5.611,0,0,0-1.39112.11328q-.71192.26-.83642,1.39063c-.023.22656-.07569.33935-.15821.33935-.09082,0-.13574-.0791-.13574-.2373,0-.083.00342-.166.01123-.249l.02246-.25977q.03369-.52.102-1.36816h.50879l2.30664.03369q.4065.01172,1.26612,0l1.877-.03369q.02271.6328.147,1.877a.38815.38815,0,0,0,.01172.08447A.48748.48748,0,0,1,177.602,11.1746Z"/>
        <path d="M185.788,9.23466c0,.05713-.064.08545-.1919.08545q-.62256.01172-.769.21729a14.94515,14.94515,0,0,0-.97266,1.94238q-.3728.80273-.70068,1.41357a2.85017,2.85017,0,0,0-.26025.57276,3.96169,3.96169,0,0,0-.0337.66308v2.14356c0,.249.03174.397.09571.44189a1.93953,1.93953,0,0,0,.67285.10205c.20361.01465.30566.04981.30566.10694s-.05322.08544-.15869.08544h-.13574l-1.583-.03369q-.66723,0-1.09668.02246a.99693.99693,0,0,1-.1582.01123q-.15821,0-.1582-.10693c0-.07129.08642-.11133.25976-.11914a1.73774,1.73774,0,0,0,.73535-.11279q.1128-.09009.1128-.54053v-2.377q-.1128-.249-.65577-1.32324l-1.13086-2.23877q-.16918-.32741-.40673-.73487a.862.862,0,0,0-.53711-.11328c-.27539,0-.41309-.041-.41309-.124,0-.06055.06055-.09082.18115-.09082q.23731,0,.94971.02295.40722.011.58789.01123l1.312-.01709a.867.867,0,0,1,.18067-.01709q.20361,0,.20361.11377c0,.06836-.12842.10254-.38428.10254q-.70166,0-.70117.25a7.70322,7.70322,0,0,0,.71143,1.55859l1.02685,1.94434q.282-.50538.64209-1.24659l.667-1.3457a2.90833,2.90833,0,0,0,.37891-.95557c0-.09863-.06445-.15576-.19238-.17089a2.97439,2.97439,0,0,0-.53174-.04541q-.24829.01171-.24854-.11377c0-.06055.07178-.09131.21485-.09131h1.02881Q185.78828,9.094,185.788,9.23466Z"/>
    </g>
</svg>
